<?xml version="1.0"?>
<svg width="44" height="34" xmlns="http://www.w3.org/2000/svg" xmlns:svg="http://www.w3.org/2000/svg">
 <g class="layer">
  <title>Layer 1</title>
  <rect fill="#fff" height="32" id="svg_1" style="--darkreader-inline-fill: #282b36;" transform="matrix(1 0 0 1 0 0)" width="42"/>
  <path d="m28,13l0,3l5.3,0l-5.3,7.7l0,3.3l9,0l0,-3l-5.3,0l5.3,-7.7l0,-3.3l-9,0zm-17.5,-3l0,14l11,0l0,-3l-8,0l0,-2.46l7,-0.04l0,-2.96l-7,-0.01l0,-2.53l8,0l0,-3m-14.5,-3l18,0l0,20l-18,0l0,-20zm-7,-7l0,34l44,0l0,-34l-44,0zm3,3l38,0l0,28l-38,0" id="svg_2"/>
 </g>
</svg>